<svg xmlns="http://www.w3.org/2000/svg" viewBox="0 0 122.88 122.88"><path d="M61.44 0c16.97 0 32.33 6.88 43.44 18 .48.48.96.97 1.42 1.47l-1.92 6.46c-1.12-1.35-2.3-2.65-3.54-3.89C90.76 11.96 76.83 5.72 61.44 5.72s-29.32 6.24-39.4 16.32C11.96 32.12 5.72 46.05 5.72 61.44s6.24 29.32 16.32 39.4c10.08 10.08 24.01 16.32 39.4 16.32s29.32-6.24 39.4-16.32c10.08-10.08 16.32-24.01 16.32-39.4 0-5.14-.7-10.11-2-14.84l2.78-9.33a61.209 61.209 0 014.94 24.17c0 16.97-6.88 32.33-18 43.44-11.12 11.12-26.48 18-43.44 18-16.97 0-32.33-6.88-43.44-18C6.88 93.77 0 78.41 0 61.44S6.88 29.11 18 18C29.11 6.88 44.47 0 61.44 0zm23.05 65.97c2.34 0 4.41 1.16 5.67 2.94l7.86-1.46 16.42-55.19c.45-1.54 2.07-2.42 3.61-1.97s2.42 2.07 1.97 3.61l-16.93 56.9a2.898 2.898 0 01-2.39 2.06l-9.48 1.76a6.951 6.951 0 01-13.69-1.7c0-3.84 3.12-6.95 6.96-6.95zM34.22 54.89a2.439 2.439 0 01-3.09 1.51 2.439 2.439 0 01-1.51-3.09A37.493 37.493 0 0150.15 31.2a2.43 2.43 0 013.19 1.27 2.43 2.43 0 01-1.27 3.19c-4.17 1.8-7.89 4.46-10.95 7.76-3.03 3.27-5.4 7.17-6.9 11.47zm-12.93-2.44a2.424 2.424 0 01-2.96 1.76 2.43 2.43 0 01-1.76-2.97c1.96-7.68 5.79-14.61 10.96-20.29a47.84 47.84 0 0119.21-12.82c1.27-.45 2.67.21 3.12 1.48.45 1.27-.21 2.67-1.48 3.12a43.078 43.078 0 00-17.25 11.5 42.862 42.862 0 00-9.84 18.22zm40.15-5.31c3.95 0 7.53 1.6 10.11 4.19 2.59 2.59 4.19 6.16 4.19 10.11 0 3.95-1.6 7.53-4.19 10.11a14.245 14.245 0 01-10.11 4.19c-3.95 0-7.53-1.6-10.11-4.19a14.245 14.245 0 01-4.19-10.11c0-3.95 1.6-7.53 4.19-10.11 2.58-2.59 6.16-4.19 10.11-4.19z" fill="#FFBB50"/></svg>